<svg width="57" height="40" viewBox="0 0 57 40" fill="none" xmlns="http://www.w3.org/2000/svg">
<path d="M54.2094 3.3168C54.0566 2.98545 53.7871 2.70738 53.4438 2.54951C52.7314 2.21992 51.9177 1.94186 51.0096 1.69467C49.6467 1.32904 48.069 1.0423 46.3319 0.841467C44.5946 0.644043 42.6978 0.53418 40.7082 0.53418C38.0543 0.53418 35.5669 0.72644 33.4005 1.06976C32.3156 1.24148 31.3149 1.45088 30.405 1.69467C29.763 1.86979 29.1708 2.06029 28.6249 2.27485C28.079 2.06029 27.4868 1.86968 26.843 1.69467C25.4817 1.32904 23.9042 1.0423 22.1669 0.841467C20.428 0.644043 18.5311 0.53418 16.5416 0.53418C13.8877 0.53418 11.4003 0.72644 9.23391 1.06976C8.15264 1.24137 7.14849 1.45077 6.24036 1.69456C5.33223 1.94175 4.51858 2.21981 3.80447 2.5494C3.46114 2.70738 3.1933 2.98545 3.04059 3.31669C1.85275 3.61376 0.5 4.16988 0.5 5.15701C0.5 5.77323 0.5 33.7678 0.5 33.7678C0.5 36.5196 2.73165 38.7511 5.48329 38.7511H25.566V39.0103C25.566 39.551 26.002 39.9887 26.541 39.9887H30.709C31.248 39.9887 31.684 39.551 31.684 39.0103V38.7511H51.7667C54.5185 38.7511 56.75 36.5195 56.75 33.7678C56.75 33.7678 56.75 5.77323 56.75 5.15701C56.75 4.16988 55.3974 3.61376 54.2094 3.3168ZM27.0629 33.0914C26.989 33.0707 26.9186 33.0484 26.8431 33.0261C25.4818 32.6588 23.9043 32.3738 22.167 32.1729C20.4281 31.9755 18.5312 31.8656 16.5417 31.8656C13.8878 31.8656 11.4004 32.0597 9.23402 32.4012C8.15253 32.5729 7.14838 32.7824 6.24025 33.0261C6.16466 33.0484 6.09435 33.0707 6.02052 33.0914V5.02825C6.33638 4.91838 6.68146 4.81368 7.05389 4.71239C8.2246 4.39653 9.66315 4.13044 11.2717 3.94675C12.8836 3.7613 14.6654 3.66012 16.5417 3.66012C19.0428 3.66012 21.3808 3.84381 23.3601 4.15626C24.3507 4.31249 25.2501 4.50299 26.0295 4.7125C26.4037 4.81379 26.7488 4.91849 27.0629 5.02836V33.0914ZM51.2276 33.0914C51.1538 33.0707 51.0851 33.0484 51.0096 33.0261C49.6467 32.6588 48.069 32.3738 46.3319 32.1729C44.5946 31.9755 42.6978 31.8656 40.7082 31.8656C38.0543 31.8656 35.5669 32.0597 33.4005 32.4012C32.3156 32.5729 31.3149 32.7824 30.405 33.0261C30.3312 33.0484 30.2608 33.0707 30.187 33.0914V5.02825C30.5011 4.91838 30.8462 4.81368 31.2204 4.71239C32.3895 4.39653 33.8263 4.13044 35.4364 3.94675C37.0483 3.7613 38.8318 3.66012 40.7081 3.66012C43.2075 3.66012 45.5455 3.84381 47.5265 4.15626C48.5171 4.31249 49.4149 4.50299 50.1959 4.7125C50.5684 4.81379 50.9134 4.91849 51.2276 5.02836V33.0914Z" fill="white"/>
</svg>
