<svg width="60" height="61" viewBox="0 0 60 61" fill="none" xmlns="http://www.w3.org/2000/svg">
<g clip-path="url(#clip0_120_303)">
<path d="M46.2487 0.5H13.753C10.8179 0.5 8.4375 2.88043 8.4375 5.81375V55.1864C8.4375 58.1197 10.8179 60.5 13.753 60.5H46.2487C49.1822 60.5 51.5625 58.1197 51.5625 55.1862V5.81375C51.5625 2.88043 49.1822 0.5 46.2487 0.5ZM48.75 55.1862C48.75 56.5651 47.6276 57.6875 46.2487 57.6875H13.753C12.3724 57.6875 11.25 56.5651 11.25 55.1862V5.81375C11.25 4.43492 12.3724 3.3125 13.753 3.3125H46.2487C47.6276 3.3125 48.75 4.43492 48.75 5.81375V55.1862Z" fill="white"/>
<path d="M22.5 46.4375H15V53H22.5V46.4375Z" fill="white"/>
<path d="M22.5 36.125H15V42.6875H22.5V36.125Z" fill="white"/>
<path d="M22.5 25.8125H15V32.375H22.5V25.8125Z" fill="white"/>
<path d="M33.75 46.4375H26.25V53H33.75V46.4375Z" fill="white"/>
<path d="M33.75 36.125H26.25V42.6875H33.75V36.125Z" fill="white"/>
<path d="M33.75 25.8125H26.25V32.375H33.75V25.8125Z" fill="white"/>
<path d="M45 36.125H37.5V53H45V36.125Z" fill="white"/>
<path d="M45 25.8125H37.5V32.375H45V25.8125Z" fill="white"/>
<path d="M45 8.9375H15V19.25H45V8.9375Z" fill="white"/>
</g>
<defs>
<clipPath id="clip0_120_303">
<rect width="60" height="60" fill="white" transform="translate(0 0.5)"/>
</clipPath>
</defs>
</svg>
