<svg width="60" height="57" viewBox="0 0 60 57" fill="none" xmlns="http://www.w3.org/2000/svg">
<path d="M5.54227 48.0526C4.26399 46.7724 3.47801 45.0209 3.4759 43.0766V35.835H0V43.0766C0.00199219 48.8826 4.71446 53.5928 10.5193 53.5969H15.2692V50.12H10.5193C8.57391 50.1191 6.82453 49.3328 5.54227 48.0526Z" fill="white"/>
<path d="M10.0701 26.1463C12.6055 26.1463 14.6572 24.0946 14.6572 21.558C14.6572 19.0257 12.6056 16.9697 10.0701 16.9697C7.53657 16.9697 5.48169 19.0257 5.48169 21.558C5.48169 24.0946 7.53657 26.1463 10.0701 26.1463Z" fill="white"/>
<path d="M20.9959 41.7784H14.5591V32.1974C14.5591 29.7171 12.5512 27.707 10.0699 27.707C7.59172 27.707 5.58173 29.717 5.58173 32.1974V43.113C5.58173 45.5921 7.59067 47.6022 10.0699 47.6022C10.4066 47.6022 18.2758 47.5793 18.2758 47.5793L18.7064 54.2225C18.7366 55.583 19.8646 56.6621 21.2252 56.6328C22.5878 56.6025 23.6657 55.4745 23.6346 54.114L23.8962 44.6789C23.8962 43.0754 22.5983 41.7784 20.9959 41.7784Z" fill="white"/>
<path d="M56.5241 35.835V43.0766C56.5221 45.0209 55.736 46.7724 54.4579 48.0526C53.1755 49.3328 51.4261 50.1191 49.4819 50.12H44.731V53.5969H49.4819C55.2857 53.5927 59.9971 48.8825 60.0001 43.0766V35.835H56.5241Z" fill="white"/>
<path d="M49.93 26.1463C52.4633 26.1463 54.5182 24.0946 54.5182 21.558C54.5182 19.0257 52.4633 16.9697 49.93 16.9697C47.3945 16.9697 45.3427 19.0257 45.3427 21.558C45.3427 24.0946 47.3945 26.1463 49.93 26.1463Z" fill="white"/>
<path d="M54.4193 43.113V32.1974C54.4193 29.7171 52.4072 27.707 49.9301 27.707C47.4489 27.707 45.4408 29.717 45.4408 32.1974V41.7784H39.0041C37.4017 41.7784 36.1037 43.0753 36.1037 44.6788L36.3654 54.1138C36.3341 55.4744 37.4121 56.6024 38.7748 56.6327C40.1353 56.6619 41.2632 55.5828 41.2935 54.2223L41.7241 47.5792C41.7241 47.5792 49.5934 47.6021 49.9301 47.6021C52.4091 47.6022 54.4193 45.5922 54.4193 43.113Z" fill="white"/>
<path d="M42.8947 35.8789H18.006V40.1148H42.8947V35.8789Z" fill="white"/>
<path d="M31.4954 42.3877H28.5992V52.6412H31.4954V42.3877Z" fill="white"/>
<path d="M42.1395 17.1805C42.1395 18.0343 41.8637 18.8371 41.357 19.5587C40.8509 20.2811 40.1065 20.9129 39.1933 21.3821L38.5269 21.7241L39.3913 23.656C36.7698 23.2025 34.337 22.3496 33.1083 21.8722L33.0839 21.8618L33.0579 21.8545C31.4101 21.3363 30.1226 20.321 29.4689 19.1199L28.0803 19.88C28.968 21.4917 30.5787 22.7157 32.5367 23.3434V23.3455C34.0573 23.9344 37.2537 25.0542 40.6118 25.4316L41.9843 25.5828L40.5654 22.4093C41.3985 21.8848 42.1136 21.2343 42.6505 20.469C43.3236 19.514 43.7223 18.384 43.7208 17.1807C43.7223 15.6836 43.1037 14.3033 42.1069 13.2233C41.1092 12.1391 39.734 11.3321 38.1562 10.9004L37.7396 12.4256C39.0584 12.7832 40.175 13.4546 40.9423 14.2929C41.7136 15.135 42.1395 16.1182 42.1395 17.1805Z" fill="white"/>
<path d="M18.9521 16.8238L17.0503 21.0754L18.424 20.9232C23.1655 20.3935 27.7063 18.8047 29.8618 17.9696C31.91 17.3138 33.6775 16.1951 34.9499 14.7408C36.2334 13.2772 37.01 11.4578 37.009 9.49047C37.01 8.20399 36.6769 6.97586 36.0873 5.87383C35.2028 4.21938 33.7473 2.84523 31.9463 1.88406C30.1468 0.921836 27.9955 0.367188 25.6852 0.367188C22.6081 0.369297 19.8079 1.35027 17.7467 2.97883C16.7171 3.79305 15.8732 4.77098 15.2821 5.87395C14.6936 6.97598 14.3621 8.2041 14.3621 9.49059C14.3604 11.1316 14.9042 12.6736 15.8268 13.9882C16.6187 15.1118 17.6907 16.0731 18.9521 16.8238ZM16.6777 6.61926C17.3903 5.28262 18.6071 4.11191 20.1698 3.27684C21.7305 2.44281 23.631 1.94652 25.6854 1.94863C28.4243 1.94652 30.8898 2.82848 32.6445 4.21715C33.5207 4.91149 34.2182 5.72781 34.6936 6.61926C35.1701 7.51164 35.4282 8.47598 35.4282 9.49035C35.4265 11.0365 34.8288 12.4783 33.7612 13.7002C32.6951 14.92 31.1589 15.9063 29.3376 16.4786L29.3146 16.486L29.2902 16.4963C27.4236 17.2199 23.6489 18.5397 19.6377 19.1632L20.9977 16.1241L20.33 15.7822C18.9825 15.0919 17.8794 14.1568 17.1215 13.0766C16.3626 11.9955 15.9434 10.783 15.9419 9.49024C15.9432 8.47598 16.1998 7.51176 16.6777 6.61926Z" fill="white"/>
</svg>
