<svg width="14" height="19" viewBox="0 0 14 19" fill="none" xmlns="http://www.w3.org/2000/svg">
<path d="M1.33319 1.26274C0.0963965 2.06487 -0.146568 4.57218 0.320377 6.6157C0.684033 8.20709 1.45719 10.3418 2.76092 12.352C3.98738 14.243 5.69848 15.9387 7.00319 16.9198C8.67864 18.1795 11.067 18.9802 12.3038 18.1781C12.9292 17.7725 13.8584 16.6643 13.9008 16.4655C13.9008 16.4655 13.3559 15.6254 13.2364 15.441L11.4092 12.6238C11.2734 12.4144 10.422 12.6058 9.9894 12.8508C9.40591 13.1814 8.86855 14.0684 8.86855 14.0684C8.46847 14.2996 8.13336 14.0693 7.43319 13.747C6.57267 13.3511 5.60517 12.1209 4.83514 11.0067C4.13184 9.84927 3.40316 8.46415 3.39261 7.51697C3.38393 6.74627 3.31031 6.34641 3.68455 6.07535C3.68455 6.07535 4.71364 5.94647 5.25347 5.54857C5.65358 5.25354 6.17555 4.55414 6.03977 4.34475L4.21263 1.52754C4.09306 1.34318 3.54821 0.503087 3.54821 0.503087C3.34933 0.460724 1.95859 0.857146 1.33319 1.26274Z" fill="black"/>
</svg>
